<svg width="40" height="40" viewBox="0 0 40 40" fill="none" xmlns="http://www.w3.org/2000/svg">
<path d="M6.66675 31.6667V28.3334H10.0001V16.6667C10.0001 14.3612 10.6945 12.3195 12.0834 10.5417C13.4723 8.73615 15.2779 7.55559 17.5001 7.00004V5.83337C17.5001 5.13893 17.7362 4.5556 18.2084 4.08337C18.7084 3.58337 19.3056 3.33337 20.0001 3.33337C20.6945 3.33337 21.2779 3.58337 21.7501 4.08337C22.2501 4.5556 22.5001 5.13893 22.5001 5.83337V7.00004C24.7223 7.55559 26.5279 8.73615 27.9167 10.5417C29.3056 12.3195 30.0001 14.3612 30.0001 16.6667V28.3334H33.3334V31.6667H6.66675ZM20.0001 36.6667C19.0834 36.6667 18.2917 36.3473 17.6251 35.7084C16.9862 35.0417 16.6667 34.25 16.6667 33.3334H23.3334C23.3334 34.25 23.0001 35.0417 22.3334 35.7084C21.6945 36.3473 20.9167 36.6667 20.0001 36.6667ZM13.3334 28.3334H26.6667V16.6667C26.6667 14.8334 26.014 13.2639 24.7084 11.9584C23.4029 10.6528 21.8334 10 20.0001 10C18.1667 10 16.5973 10.6528 15.2917 11.9584C13.9862 13.2639 13.3334 14.8334 13.3334 16.6667V28.3334Z" fill="#AEAFB1"/>
</svg>
