<svg width="32" height="33" viewBox="0 0 32 33" fill="none" xmlns="http://www.w3.org/2000/svg">
<circle cx="16" cy="16.5522" r="16" fill="#007DFC"/>
<path d="M17.4529 18.3623V8.78494C17.3502 5.81337 13.064 5.80266 12.9576 8.78494V18.3623C8.90226 20.6882 10.5244 26.8785 15.2035 26.9204C16.5601 26.9186 17.8459 26.3158 18.7141 25.2728C19.5825 24.2308 19.9435 22.8569 19.6998 21.5231C19.4561 20.1883 18.6332 19.0308 17.453 18.3625L17.4529 18.3623ZM15.2034 25.49C13.7485 25.4855 12.4855 24.4835 12.152 23.0669C11.8174 21.6512 12.4984 20.1901 13.7986 19.5353C14.1614 19.3543 14.3906 18.9824 14.3888 18.5769V8.78512C14.3879 8.56872 14.4742 8.35959 14.627 8.20682C14.7806 8.05316 14.9889 7.96679 15.2053 7.96679C15.4226 7.96679 15.6308 8.05317 15.7845 8.20682C15.9372 8.35958 16.0236 8.56872 16.0227 8.78512V18.5769C16.0209 18.9815 16.2482 19.3525 16.6092 19.5353C17.9112 20.1881 18.5941 21.6502 18.2595 23.0678C17.9249 24.4853 16.66 25.4882 15.2034 25.49Z" fill="white"/>
<path d="M15.2033 20.2009C14.0231 20.2046 13.0684 21.1629 13.0684 22.3431C13.1702 25.1802 17.242 25.1755 17.3418 22.3431C17.3418 21.1611 16.3854 20.2027 15.2033 20.2009Z" fill="white"/>
<path d="M8.77027 10.6084H11.7418C11.9373 10.6057 12.0937 10.4466 12.0937 10.2511C12.0937 10.0547 11.9373 9.89557 11.7418 9.89282H8.77027C8.57478 9.89555 8.41748 10.0547 8.41748 10.2511C8.41748 10.4466 8.57478 10.6057 8.77027 10.6084Z" fill="white"/>
<path d="M12.099 12.5712C12.099 12.4767 12.0608 12.3848 11.9944 12.3184C11.9271 12.2512 11.8362 12.213 11.7416 12.2139H8.35642C8.15911 12.2139 8 12.3739 8 12.5712C8 12.7685 8.15912 12.9277 8.35642 12.9286H11.7416C11.8362 12.9286 11.9271 12.8913 11.9944 12.824C12.0608 12.7567 12.099 12.6658 12.099 12.5712Z" fill="white"/>
<path d="M9.4192 14.5344C9.2237 14.5372 9.06641 14.6963 9.06641 14.8918C9.06641 15.0873 9.22371 15.2464 9.4192 15.2491H11.7415C11.937 15.2464 12.0933 15.0873 12.0933 14.8918C12.0933 14.6963 11.937 14.5372 11.7415 14.5344H9.4192Z" fill="white"/>
<path d="M12.0992 17.2123C12.0992 17.1178 12.061 17.0268 11.9946 16.9596C11.9273 16.8923 11.8364 16.855 11.7418 16.855H8.77028C8.67481 16.8541 8.58388 16.8923 8.51661 16.9587C8.44932 17.0259 8.41113 17.1169 8.41113 17.2123C8.41113 17.3078 8.44932 17.3987 8.51661 17.466C8.58389 17.5324 8.67482 17.5706 8.77028 17.5697H11.7418C11.8364 17.5697 11.9273 17.5324 11.9946 17.4651C12.061 17.3978 12.0992 17.3069 12.0992 17.2123Z" fill="white"/>
<path d="M18.9159 8.53962C19.1114 8.57053 19.2941 8.43778 19.325 8.2423L19.4687 7.33304C19.4996 7.13846 19.366 6.95479 19.1714 6.92388C18.9759 6.89296 18.7931 7.02663 18.7622 7.2212L18.6186 8.13045C18.604 8.22501 18.6267 8.32049 18.6822 8.39686C18.7386 8.47415 18.8222 8.52507 18.9159 8.53962Z" fill="white"/>
<path d="M20.6396 16.5521C20.5487 16.3793 20.3359 16.3111 20.1613 16.4002C19.9867 16.4884 19.9167 16.7003 20.0022 16.8758L20.4196 17.6959C20.4623 17.7814 20.5369 17.846 20.6278 17.876C20.7178 17.906 20.8169 17.8987 20.9015 17.8551C20.9869 17.8123 21.0506 17.7369 21.0797 17.6459C21.1088 17.555 21.1006 17.4568 21.057 17.3722L20.6396 16.5521Z" fill="white"/>
<path d="M23.2822 14.8307L22.463 14.4124C22.2875 14.3261 22.0756 14.3961 21.9865 14.5707C21.8983 14.7443 21.9656 14.958 22.1384 15.0489C22.4511 15.2299 22.7794 15.3826 23.1194 15.5063C23.2831 15.5036 23.4249 15.3908 23.4631 15.2317C23.5013 15.0726 23.4268 14.9071 23.2822 14.8307Z" fill="white"/>
<path d="M23.5891 11.463L22.6817 11.6067V11.6076C22.4889 11.6412 22.3589 11.8231 22.3898 12.0158C22.4207 12.2086 22.6007 12.3413 22.7935 12.3132L23.701 12.1695H23.7019C23.8946 12.1368 24.0256 11.9549 23.9956 11.7612C23.9646 11.5676 23.7837 11.4348 23.5891 11.463Z" fill="white"/>
<path d="M22.369 8.55697C22.3018 8.48969 22.2108 8.4515 22.1154 8.45241C22.0208 8.45241 21.9299 8.48969 21.8626 8.55697L21.2134 9.20801C21.1461 9.2753 21.1079 9.36623 21.1079 9.46169C21.1079 9.55625 21.1461 9.64809 21.2134 9.71446C21.2807 9.78174 21.3716 9.81993 21.4671 9.81902C21.5616 9.81902 21.6525 9.78083 21.7198 9.71355L22.369 9.06251C22.5091 8.92248 22.5082 8.6961 22.369 8.55697Z" fill="white"/>
<path d="M18.2644 9.36792C18.2325 9.36792 18.1998 9.36883 18.168 9.37156V15.9664C19.05 15.991 19.9056 15.6609 20.542 15.0499C21.1794 14.4389 21.5449 13.5987 21.5577 12.7159C21.5704 11.8339 21.2294 10.9828 20.6111 10.3537C19.9919 9.72544 19.1472 9.36974 18.2644 9.36792Z" fill="white"/>
</svg>
