<svg width="20" height="26" viewBox="0 0 20 26" fill="none" xmlns="http://www.w3.org/2000/svg">
<path d="M11.8158 14.7626V2.79087C11.6873 -0.923594 6.32962 -0.936979 6.19665 2.79087V14.7626C1.12745 17.67 3.15519 25.4079 9.004 25.4603C10.6998 25.458 12.307 24.7044 13.3923 23.4008C14.4778 22.0982 14.929 20.3809 14.6244 18.7136C14.3198 17.0451 13.2912 15.5983 11.8159 14.7629L11.8158 14.7626ZM9.00386 23.6723C7.18532 23.6666 5.60654 22.4141 5.18959 20.6433C4.77133 18.8737 5.62264 17.0473 7.24794 16.2288C7.70144 16.0026 7.98786 15.5378 7.98559 15.0308V2.7911C7.98446 2.52059 8.09243 2.25919 8.28337 2.06823C8.47545 1.87614 8.73573 1.76818 9.00624 1.76818C9.27788 1.76818 9.53815 1.87616 9.73025 2.06823C9.9212 2.25917 10.0292 2.52059 10.028 2.7911V15.0308C10.0258 15.5366 10.3099 16.0003 10.7611 16.2288C12.3887 17.0449 13.2423 18.8725 12.824 20.6445C12.4057 22.4164 10.8247 23.67 9.00386 23.6723Z" fill="#007DFC"/>
<path d="M9.00415 17.061C7.52887 17.0656 6.33545 18.2635 6.33545 19.7388C6.46275 23.2851 11.5525 23.2793 11.6773 19.7388C11.6773 18.2613 10.4817 17.0633 9.00415 17.061Z" fill="#007DFC"/>
<path d="M0.962471 5.07005H4.67693C4.9213 5.06664 5.11679 4.86774 5.11679 4.62336C5.11679 4.37786 4.92129 4.17897 4.67693 4.17554H0.962471C0.718107 4.17895 0.521484 4.37785 0.521484 4.62336C0.521484 4.86773 0.718113 5.06662 0.962471 5.07005Z" fill="#007DFC"/>
<path d="M5.1237 7.52383C5.1237 7.40563 5.07596 7.29084 4.99299 7.20788C4.90889 7.12377 4.79523 7.07603 4.67703 7.07717H0.445526C0.198886 7.07717 0 7.27721 0 7.52386C0 7.7705 0.198901 7.96938 0.445526 7.97055H4.67703C4.79524 7.97055 4.9089 7.92395 4.99299 7.83984C5.07596 7.75573 5.1237 7.64203 5.1237 7.52383Z" fill="#007DFC"/>
<path d="M1.77399 9.97754C1.52963 9.98095 1.33301 10.1798 1.33301 10.4242C1.33301 10.6686 1.52964 10.8675 1.77399 10.8709H4.67684C4.9212 10.8675 5.11669 10.6686 5.11669 10.4242C5.11669 10.1799 4.9212 9.98097 4.67684 9.97754H1.77399Z" fill="#007DFC"/>
<path d="M5.12374 13.3251C5.12374 13.2069 5.076 13.0932 4.99303 13.0091C4.90892 12.925 4.79526 12.8784 4.67707 12.8784H0.962608C0.843265 12.8773 0.729609 12.925 0.645514 13.008C0.561407 13.0921 0.513672 13.2058 0.513672 13.3251C0.513672 13.4444 0.561407 13.5581 0.645514 13.6422C0.72962 13.7252 0.84328 13.7729 0.962608 13.7718H4.67707C4.79528 13.7718 4.90893 13.7252 4.99303 13.6411C5.076 13.557 5.12374 13.4433 5.12374 13.3251Z" fill="#007DFC"/>
<path d="M13.6446 2.48422C13.889 2.52286 14.1174 2.35692 14.1561 2.11257L14.3356 0.976C14.3743 0.73277 14.2072 0.503181 13.964 0.464541C13.7196 0.425898 13.4912 0.592976 13.4525 0.836191L13.2729 1.97276C13.2548 2.09096 13.2832 2.21031 13.3525 2.30577C13.423 2.40238 13.5275 2.46603 13.6446 2.48422Z" fill="#007DFC"/>
<path d="M15.7997 12.5C15.6861 12.284 15.4201 12.1988 15.2019 12.3102C14.9837 12.4204 14.8961 12.6853 15.003 12.9046L15.5247 13.9298C15.5781 14.0366 15.6713 14.1173 15.785 14.1548C15.8975 14.1924 16.0214 14.1833 16.1271 14.1287C16.2339 14.0753 16.3135 13.981 16.3499 13.8673C16.3862 13.7536 16.376 13.6309 16.3214 13.5252L15.7997 12.5Z" fill="#007DFC"/>
<path d="M19.1026 10.3481L18.0786 9.82525C17.8592 9.71727 17.5944 9.80479 17.483 10.023C17.3728 10.2401 17.4569 10.5072 17.6728 10.6209C18.0638 10.847 18.4741 11.038 18.8992 11.1925C19.1038 11.1891 19.2811 11.0482 19.3288 10.8493C19.3766 10.6504 19.2834 10.4436 19.1026 10.3481Z" fill="#007DFC"/>
<path d="M19.4868 6.13826L18.3525 6.31784V6.31898C18.1115 6.36103 17.949 6.58835 17.9876 6.8293C18.0263 7.07026 18.2513 7.23619 18.4923 7.20095L19.6266 7.02137H19.6277C19.8687 6.98045 20.0323 6.75314 19.9948 6.51105C19.9562 6.26895 19.73 6.10302 19.4868 6.13826Z" fill="#007DFC"/>
<path d="M17.9612 2.50573C17.8771 2.42162 17.7634 2.37389 17.6441 2.37502C17.5259 2.37502 17.4122 2.42162 17.3281 2.50573L16.5166 3.31953C16.4325 3.40363 16.3848 3.51729 16.3848 3.63662C16.3848 3.75483 16.4325 3.86962 16.5166 3.95258C16.6007 4.03669 16.7144 4.08442 16.8337 4.08329C16.9519 4.08329 17.0656 4.03555 17.1497 3.95145L17.9612 3.13765C18.1362 2.96261 18.1351 2.67964 17.9612 2.50573Z" fill="#007DFC"/>
<path d="M12.8309 3.51978C12.7911 3.51978 12.7502 3.52091 12.7104 3.52432V11.768C13.8129 11.7986 14.8824 11.3861 15.678 10.6223C16.4748 9.85849 16.9317 8.80828 16.9476 7.70476C16.9635 6.60227 16.5373 5.53844 15.7644 4.75205C14.9904 3.96668 13.9345 3.52204 12.8309 3.51978Z" fill="#007DFC"/>
</svg>
