<svg width="40" height="40" viewBox="0 0 40 40" fill="none" xmlns="http://www.w3.org/2000/svg">
<path fill-rule="evenodd" clip-rule="evenodd" d="M3.125 10C3.125 8.96447 3.96447 8.125 5 8.125H35C36.0355 8.125 36.875 8.96447 36.875 10C36.875 11.0355 36.0355 11.875 35 11.875H5C3.96447 11.875 3.125 11.0355 3.125 10ZM3.125 20C3.125 18.9645 3.96447 18.125 5 18.125H35C36.0355 18.125 36.875 18.9645 36.875 20C36.875 21.0355 36.0355 21.875 35 21.875H5C3.96447 21.875 3.125 21.0355 3.125 20ZM3.125 30C3.125 28.9645 3.96447 28.125 5 28.125H35C36.0355 28.125 36.875 28.9645 36.875 30C36.875 31.0355 36.0355 31.875 35 31.875H5C3.96447 31.875 3.125 31.0355 3.125 30Z" fill="#007DFC"/>
</svg>
