<svg width="20" height="22" viewBox="0 0 20 22" fill="none" xmlns="http://www.w3.org/2000/svg">
<path d="M14.2702 14.4797C14.415 14.4797 14.5429 14.4629 14.6569 14.4358C14.6167 15.3333 14.415 16.215 14.0751 17.0285C13.8603 16.9911 13.7286 16.8874 13.5642 16.7492C13.3251 16.554 13.0263 16.3121 12.4678 16.3121C11.9065 16.3121 11.6104 16.554 11.3714 16.7492C11.1566 16.9239 11.0053 17.0481 10.6616 17.0481C10.3216 17.0481 10.1675 16.9239 9.95552 16.7492C9.71643 16.554 9.42131 16.3121 8.8591 16.3121C8.69099 16.3121 8.55278 16.4504 8.55278 16.6213C8.55278 16.7894 8.691 16.9276 8.8591 16.9276C9.19905 16.9276 9.35314 17.0518 9.56514 17.2264C9.80423 17.4216 10.0994 17.6635 10.6616 17.6635C11.2229 17.6635 11.5189 17.4216 11.758 17.2264C11.9728 17.0518 12.1241 16.9276 12.4678 16.9276C12.8077 16.9276 12.9618 17.0518 13.1738 17.2264C13.3382 17.3609 13.5306 17.516 13.8126 17.5963C12.8171 19.537 10.9979 21.0293 8.63405 21.4133C8.21471 21.4843 7.78417 21.5179 7.34337 21.5179C6.90257 21.5179 6.46922 21.4843 6.04521 21.4133C1.13917 20.6167 -1.41976 15.0711 0.816168 10.6329L5.64832 1.0425C6.34784 -0.349984 8.33517 -0.346254 9.03473 1.04623L13.8126 10.5695C13.7286 10.5191 13.651 10.4555 13.5642 10.3846C13.3251 10.1894 13.0262 9.94749 12.4678 9.94749C11.9065 9.94749 11.6104 10.1894 11.3713 10.3846C11.1565 10.5564 11.0052 10.6834 10.6615 10.6834C10.3216 10.6834 10.1675 10.5555 9.95549 10.3846C9.71641 10.1894 9.42128 9.94749 8.85907 9.94749C8.69097 9.94749 8.55276 10.082 8.55276 10.2538C8.55276 10.4219 8.69098 10.5601 8.85907 10.5601C9.19903 10.5601 9.35312 10.6881 9.56512 10.859C9.8042 11.0542 10.0993 11.2961 10.6615 11.2961C11.2228 11.2961 11.5189 11.0542 11.758 10.859C11.9728 10.6871 12.124 10.5601 12.4678 10.5601C12.8077 10.5601 12.9618 10.6881 13.1738 10.859C13.3923 11.0374 13.665 11.2559 14.1386 11.2895C14.4617 12.1105 14.6298 12.951 14.6597 13.7877C14.5551 13.8344 14.4346 13.8652 14.2693 13.8652C13.9294 13.8652 13.7753 13.741 13.5633 13.5664C13.3242 13.3749 13.0253 13.1293 12.4668 13.1293C11.9055 13.1293 11.6095 13.3749 11.3704 13.5664C11.1556 13.741 11.0043 13.8652 10.6606 13.8652C10.3207 13.8652 10.1666 13.741 9.95459 13.5664C9.7155 13.3749 9.42037 13.1293 8.85816 13.1293C8.69006 13.1293 8.55185 13.2675 8.55185 13.4385C8.55185 13.6066 8.69007 13.7448 8.85816 13.7448C9.19812 13.7448 9.35221 13.8727 9.56421 14.0436C9.80329 14.2388 10.0984 14.4807 10.6606 14.4807C11.2219 14.4807 11.518 14.2388 11.7571 14.0436C11.9719 13.8718 12.1231 13.7448 12.4668 13.7448C12.8068 13.7448 12.9609 13.8727 13.1729 14.0436C13.4129 14.2379 13.7127 14.4797 14.2702 14.4797ZM19.6946 9.94642C19.1333 9.94642 18.8335 10.1883 18.5954 10.3835C18.3834 10.5553 18.2293 10.6823 17.8856 10.6823C17.5428 10.6823 17.3878 10.5544 17.1758 10.3835C16.9367 10.1883 16.6378 9.94642 16.0765 9.94642C15.5181 9.94642 15.2192 10.1883 14.9801 10.3835C14.7681 10.5553 14.614 10.6823 14.2703 10.6823C14.0686 10.6823 13.9341 10.6385 13.8127 10.5684L13.8566 10.6525C13.9612 10.8607 14.0546 11.0765 14.1386 11.2885C14.1825 11.295 14.2264 11.295 14.2694 11.295C14.8307 11.295 15.1305 11.0531 15.3686 10.8579C15.5806 10.6861 15.7347 10.5591 16.0747 10.5591C16.4174 10.5591 16.5724 10.687 16.7873 10.8579C17.0263 11.0531 17.3215 11.295 17.8837 11.295C18.445 11.295 18.741 11.0531 18.9829 10.8579C19.1949 10.6861 19.349 10.5591 19.6927 10.5591C19.8608 10.5591 19.999 10.4209 19.999 10.2528C20.0009 10.0809 19.8627 9.94642 19.6946 9.94642ZM19.6946 13.1284C19.1333 13.1284 18.8335 13.374 18.5954 13.5655C18.3834 13.7401 18.2293 13.8643 17.8856 13.8643C17.5428 13.8643 17.3878 13.7401 17.1758 13.5655C16.9367 13.374 16.6378 13.1284 16.0765 13.1284C15.5181 13.1284 15.2192 13.374 14.9801 13.5655C14.869 13.6561 14.7746 13.7336 14.6607 13.7878C14.671 14.0063 14.6673 14.2211 14.657 14.4368C14.9829 14.3593 15.1912 14.1884 15.3696 14.0436C15.5816 13.8718 15.7357 13.7448 16.0756 13.7448C16.4184 13.7448 16.5734 13.8727 16.7882 14.0436C17.0273 14.2388 17.3224 14.4807 17.8846 14.4807C18.4459 14.4807 18.742 14.2388 18.9839 14.0436C19.1959 13.8718 19.35 13.7448 19.6937 13.7448C19.8618 13.7448 20 13.6066 20 13.4385C20.0009 13.2657 19.8627 13.1284 19.6946 13.1284ZM19.6946 16.3121C19.1333 16.3121 18.8335 16.5539 18.5954 16.7491C18.3834 16.9238 18.2293 17.048 17.8856 17.048C17.5428 17.048 17.3878 16.9238 17.1758 16.7491C16.9367 16.5539 16.6378 16.3121 16.0765 16.3121C15.5152 16.3121 15.2192 16.5539 14.9801 16.7491C14.7681 16.9238 14.614 17.048 14.2703 17.048C14.1965 17.048 14.1321 17.0415 14.0751 17.0274C13.9976 17.2226 13.9108 17.4104 13.8127 17.5953C13.9434 17.6392 14.0947 17.6625 14.2703 17.6625C14.8316 17.6625 15.1314 17.4206 15.3696 17.2254C15.5816 17.0508 15.7356 16.9266 16.0756 16.9266C16.4184 16.9266 16.5734 17.0508 16.7854 17.2254C17.0273 17.4206 17.3233 17.6625 17.8846 17.6625C18.4459 17.6625 18.742 17.4206 18.9839 17.2254C19.1959 17.0508 19.35 16.9266 19.6937 16.9266C19.8618 16.9266 20 16.7884 20 16.6203C20.0009 16.4503 19.8627 16.3121 19.6946 16.3121Z" fill="#007DFC"/>
</svg>
