<svg width="40" height="40" viewBox="0 0 40 40" fill="none" xmlns="http://www.w3.org/2000/svg">
<path d="M9.74992 28.5C11.1666 27.4167 12.7499 26.5625 14.4999 25.9375C16.2499 25.3125 18.0833 25 19.9999 25C21.9166 25 23.7499 25.3125 25.4999 25.9375C27.2499 26.5625 28.8333 27.4167 30.2499 28.5C31.2221 27.3612 31.9791 26.0695 32.5208 24.625C33.0624 23.1806 33.3333 21.6389 33.3333 20C33.3333 16.3056 32.0346 13.1598 29.4374 10.5625C26.8402 7.96532 23.6944 6.66671 19.9999 6.66671C16.3055 6.66671 13.1596 7.96532 10.5624 10.5625C7.9652 13.1598 6.66659 16.3056 6.66659 20C6.66659 21.6389 6.93742 23.1806 7.47909 24.625C8.02075 26.0695 8.7777 27.3612 9.74992 28.5ZM19.9999 21.6667C18.361 21.6667 16.9791 21.1042 15.8541 19.9792C14.7291 18.8542 14.1666 17.4723 14.1666 15.8334C14.1666 14.1945 14.7291 12.8125 15.8541 11.6875C16.9791 10.5625 18.361 10 19.9999 10C21.6388 10 23.0208 10.5625 24.1458 11.6875C25.2708 12.8125 25.8333 14.1945 25.8333 15.8334C25.8333 17.4723 25.2708 18.8542 24.1458 19.9792C23.0208 21.1042 21.6388 21.6667 19.9999 21.6667ZM19.9999 36.6667C17.6944 36.6667 15.5277 36.2292 13.4999 35.3542C11.4721 34.4792 9.70825 33.2917 8.20825 31.7917C6.70825 30.2917 5.52075 28.5278 4.64575 26.5C3.77075 24.4723 3.33325 22.3056 3.33325 20C3.33325 17.6945 3.77075 15.5278 4.64575 13.5C5.52075 11.4723 6.70825 9.70837 8.20825 8.20837C9.70825 6.70837 11.4721 5.52087 13.4999 4.64587C15.5277 3.77087 17.6944 3.33337 19.9999 3.33337C22.3055 3.33337 24.4721 3.77087 26.4999 4.64587C28.5277 5.52087 30.2916 6.70837 31.7916 8.20837C33.2916 9.70837 34.4791 11.4723 35.3541 13.5C36.2291 15.5278 36.6666 17.6945 36.6666 20C36.6666 22.3056 36.2291 24.4723 35.3541 26.5C34.4791 28.5278 33.2916 30.2917 31.7916 31.7917C30.2916 33.2917 28.5277 34.4792 26.4999 35.3542C24.4721 36.2292 22.3055 36.6667 19.9999 36.6667Z" fill="#007DFC"/>
</svg>
